#!OML:ASF I:\golf\golf\golf 2\Subject 1\2002-09-07\Subject1.ASF
:FULLY-SPECIFIED
:DEGREES
516
root 0.472036 17.923 -5.28415 8.68248 -9.72932 -8.45368
lowerback -6.66169 0.547115 -1.82204
upperback -2.05853 0.739513 4.98018
thorax 1.51663 0.37508 6.27059
lowerneck -23.1323 -2.87171 -1.47527
upperneck 21.9349 -3.90233 1.46654
head 10.9753 -1.71241 0.151762
rclavicle -1.09984e-014 1.17283e-014
rhumerus -29.7677 -6.65785 -79.2946
rradius 26.7531
rwrist -5.81245
rhand -21.0221 6.31354
rfingers 7.12502
rthumb 5.35305 -23.5989
lclavicle -1.09984e-014 1.17283e-014
lhumerus -29.9155 11.9422 82.2475
lradius 19.8235
lwrist -3.02951
lhand -9.22452 31.5438
lfingers 7.12502
lthumb 16.7303 60.8429
rfemur -15.6191 -1.30711 27.2687
rtibia 29.455
rfoot -15.4543 -2.23565
rtoes 0.49744
lfemur -12.7647 0.887023 -8.70913
ltibia 30.4548
lfoot -17.9439 13.1117
ltoes -12.3561
517
root 0.441379 17.9242 -5.27934 8.71762 -9.86346 -8.58605
lowerback -6.66339 0.538956 -1.70626
upperback -2.12504 0.721449 5.03716
thorax 1.45169 0.368469 6.26225
lowerneck -23.0758 -2.81177 -1.43318
upperneck 21.944 -3.83512 1.46775
head 10.9663 -1.67865 0.156776
rclavicle -9.2132e-016 -3.4191e-014
rhumerus -29.5227 -6.13683 -79.5758
rradius 27.0896
rwrist -5.9834
rhand -20.6646 6.24021
rfingers 7.12502
rthumb 5.69814 -23.6632
lclavicle -9.2132e-016 -3.4191e-014
lhumerus -29.8115 11.4275 82.6106
lradius 20.0506
lwrist -3.10566
lhand -8.99163 31.9942
lfingers 7.12502
lthumb 16.9545 61.2743
rfemur -15.5928 -1.30066 27.5003
rtibia 29.4638
rfoot -15.4786 -2.03975
rtoes 0.68254
lfemur -12.6605 0.867094 -8.47544
ltibia 30.4158
lfoot -17.9423 13.2744
ltoes -12.6195
518
root 0.409637 17.9234 -5.2747 8.74733 -9.95971 -8.5838
lowerback -6.74922 0.470979 -1.76403
upperback -2.17189 0.633786 5.08121
thorax 1.4602 0.325059 6.33694
lowerneck -23.0511 -2.73306 -1.42951
upperneck 22.0611 -3.73231 1.47602
head 11.0038 -1.63006 0.175336
rclavicle 6.50651e-015 4.81059e-014
rhumerus -29.2175 -5.40618 -79.9278
rradius 27.3582
rwrist -6.29359
rhand -20.4792 6.17031
rfingers 7.12502
rthumb 5.87713 -23.7282
lclavicle 6.50651e-015 4.81059e-014
lhumerus -29.6111 11.0773 82.9505
lradius 20.0862
lwrist -3.16705
lhand -8.85477 31.9307
lfingers 7.12502
lthumb 17.0862 61.1994
rfemur -15.5867 -1.25627 27.5986
rtibia 29.4897
rfoot -15.4865 -1.99737
rtoes 0.491079
lfemur -12.603 0.928333 -8.37916
ltibia 30.3787
lfoot -17.9057 13.3625
ltoes -13.1639
519
root 0.375501 17.9215 -5.2784 8.883 -9.84454 -8.52111
lowerback -6.89575 0.333346 -1.91149
upperback -2.24906 0.459614 5.12899
thorax 1.48116 0.238627 6.46126
lowerneck -23.0312 -2.65599 -1.42468
upperneck 22.1513 -3.62349 1.45597
head 11.0315 -1.58252 0.184528
rclavicle -5.02785e-015 -1.59028e-015
rhumerus -28.8463 -4.82972 -80.212
rradius 27.5201
rwrist -6.41439
rhand -20.3878 6.30615
rfingers 7.12502
rthumb 5.96542 -23.5899
lclavicle -5.02785e-015 -1.59028e-015
lhumerus -29.3539 10.6395 83.3785
lradius 20.0646
lwrist -2.90512
lhand -8.96281 31.3778
lfingers 7.12502
lthumb 16.9822 60.6555
rfemur -15.7349 -1.15772 27.6783
rtibia 29.5267
rfoot -15.5121 -2.17086
rtoes 0.809737
lfemur -12.7922 1.1099 -8.30436
ltibia 30.3488
lfoot -17.7469 13.3046
ltoes -14.398
520
root 0.345708 17.9143 -5.27675 8.94712 -9.93565 -8.63612
lowerback -6.96908 0.314533 -1.80067
upperback -2.26947 0.425279 5.18793
thorax 1.50561 0.220991 6.4584
lowerneck -23.0683 -2.60013 -1.34138
upperneck 22.1549 -3.54245 1.33819
head 11.0341 -1.55367 0.140597
rclavicle 5.09696e-015 -3.51849e-014
rhumerus -28.5414 -4.25807 -80.4866
rradius 27.8143
rwrist -6.6289
rhand -20.4062 6.28487
rfingers 7.12502
rthumb 5.94762 -23.6116
lclavicle 5.09696e-015 -3.51849e-014
lhumerus -29.097 9.99249 83.8711
lradius 20.1675
lwrist -2.48332
lhand -9.08654 31.3304
lfingers 7.12502
lthumb 16.8631 60.6182
rfemur -15.7503 -0.9616 27.9014
rtibia 29.5505
rfoot -15.5973 -2.2039
rtoes 1.55055
lfemur -12.7951 1.3009 -8.08337
ltibia 30.3466
lfoot -17.6765 13.4321
ltoes -15.5347
521
root 0.31752 17.9098 -5.27253 8.97826 -10.0731 -8.80017
lowerback -6.94236 0.322997 -1.62901
upperback -2.31663 0.42476 5.25952
thorax 1.44285 0.222658 6.4346
lowerneck -23.0473 -2.58321 -1.25805
upperneck 22.1105 -3.5094 1.19707
head 11.0084 -1.55048 0.0813939
rclavicle 1.16864e-015 4.25399e-014
rhumerus -28.3764 -3.63269 -80.755
rradius 28.232
rwrist -6.90565
rhand -20.4858 6.22334
rfingers 7.12502
rthumb 5.87082 -23.6753
lclavicle 1.16864e-015 4.25399e-014
lhumerus -28.8694 9.45706 84.2969
lradius 20.2921
lwrist -2.36447
lhand -9.13406 31.4049
lfingers 7.12502
lthumb 16.8174 60.6966
rfemur -15.7139 -0.889848 28.1633
rtibia 29.54
rfoot -15.6533 -2.06867
rtoes 1.9242
lfemur -12.7297 1.4155 -7.81871
ltibia 30.377
lfoot -17.7076 13.4869
ltoes -15.5493
522
root 0.28714 17.909 -5.26959 8.95375 -10.1111 -8.89239
lowerback -6.83354 0.312625 -1.53328
upperback -2.3772 0.407296 5.27934
thorax 1.32239 0.217288 6.39663
lowerneck -23.0637 -2.56897 -1.1678
upperneck 22.1601 -3.5119 1.15599
head 11.0273 -1.54878 0.0507033
rclavicle 1.23045e-014 -2.72335e-014
rhumerus -28.2675 -3.19604 -81.0384
rradius 28.6451
rwrist -7.00941
rhand -20.6002 6.18342
rfingers 7.12502
rthumb 5.76036 -23.7183
lclavicle 1.23045e-014 -2.72335e-014
lhumerus -28.6327 8.86765 84.6667
lradius 20.4263
lwrist -2.39841
lhand -9.0961 31.5719
lfingers 7.12502
lthumb 16.8539 60.8605
rfemur -15.6277 -0.967206 28.3753
rtibia 29.5184
rfoot -15.7134 -1.91647
rtoes 2.65598
lfemur -12.6579 1.46918 -7.61474
ltibia 30.4193
lfoot -17.7114 13.4445
ltoes -15.0837
523
root 0.261732 17.9043 -5.2545 8.85839 -10.4788 -8.97656
lowerback -6.9755 0.403937 -1.40511
upperback -2.27311 0.514289 5.29844
thorax 1.49735 0.265218 6.35502
lowerneck -23.1947 -2.54394 -1.19252
upperneck 22.3026 -3.47583 1.1775
head 11.1054 -1.52976 0.0659808
rclavicle -1.00961e-014 2.06736e-014
rhumerus -28.0133 -2.74586 -81.2715
rradius 29.0143
rwrist -7.14199
rhand -20.8014 6.00059
rfingers 7.12502
rthumb 5.5661 -23.9063
lclavicle -1.00961e-014 2.06736e-014
lhumerus -28.2305 8.24139 85.1308
lradius 20.4571
lwrist -2.36412
lhand -9.12397 31.7247
lfingers 7.12502
lthumb 16.8271 61.0156
rfemur -15.4012 -0.847876 28.5089
rtibia 29.4847
rfoot -15.7958 -1.73117
rtoes 3.23494
lfemur -12.3583 1.61681 -7.50876
ltibia 30.4593
lfoot -17.7594 13.6984
ltoes -15.2491
524
root 0.233092 17.9029 -5.25458 8.95007 -10.4417 -8.90376
lowerback -7.15939 0.336377 -1.54811
upperback -2.26681 0.429328 5.37022
thorax 1.61433 0.220089 6.5108
lowerneck -23.3086 -2.54222 -1.30287
upperneck 22.4049 -3.42444 1.14136
head 11.1657 -1.51938 0.0773227
rclavicle 2.92369e-014 1.39149e-015
rhumerus -27.6924 -2.27944 -81.3823
rradius 29.2907
rwrist -7.28988
rhand -21.2418 5.99843
rfingers 7.12502
rthumb 5.14092 -23.9192
lclavicle 2.92369e-014 1.39149e-015
lhumerus -27.6261 7.71125 85.6705
lradius 20.1272
lwrist -2.26337
lhand -9.51044 31.2147
lfingers 7.12502
lthumb 16.455 60.5368
rfemur -15.4817 -0.725063 28.5532
rtibia 29.4516
rfoot -15.793 -1.99513
rtoes 2.23121
lfemur -12.4705 1.6687 -7.48401
ltibia 30.4977
lfoot -17.7625 13.6336
ltoes -15.3403
525
root 0.203373 17.9062 -5.25447 9.05557 -10.3363 -8.88914
lowerback -6.75577 0.277398 -1.48031
upperback -2.6349 0.365317 5.32406
thorax 1.0172 0.206808 6.40706
lowerneck -23.2044 -2.49995 -1.22753
upperneck 22.6392 -3.4018 1.14621
head 11.2326 -1.50141 0.0701479
rclavicle -1.9366e-014 -1.13307e-014
rhumerus -28.0002 -1.95759 -81.6358
rradius 29.6099
rwrist -7.25187
rhand -21.7315 6.29542
rfingers 7.12502
rthumb 4.66806 -23.6332
lclavicle -1.9366e-014 -1.13307e-014
lhumerus -28.0084 6.97911 85.9371
lradius 20.6733
lwrist -1.99719
lhand -9.75967 30.8735
lfingers 7.12502
lthumb 16.2151 60.2153
rfemur -15.5696 -0.588237 28.6671
rtibia 29.4266
rfoot -15.8185 -2.25982
rtoes 1.58861
lfemur -12.5936 1.61229 -7.37139
ltibia 30.5368
lfoot -17.9311 13.3317
ltoes -13.2915
526
root 0.173876 17.9092 -5.24981 9.10848 -10.3545 -8.97366
lowerback -6.97294 0.244542 -1.44143
upperback -2.52816 0.309915 5.41191
thorax 1.25492 0.172055 6.47826
lowerneck -23.4157 -2.49086 -1.30199
upperneck 22.6476 -3.36653 1.17353
head 11.277 -1.48669 0.0957466
rclavicle -6.42944e-016 1.25234e-014
rhumerus -27.6236 -1.56584 -81.7679
rradius 29.9017
rwrist -7.26237
rhand -22.0135 6.52061
rfingers 7.12502
rthumb 4.39569 -23.4138
lclavicle -6.42944e-016 1.25234e-014
lhumerus -27.6726 6.47686 86.3986
lradius 21.0959
lwrist -1.80474
lhand -9.68471 30.5989
lfingers 7.12502
lthumb 16.2872 59.9348
rfemur -15.5542 -0.475223 28.8718
rtibia 29.4044
rfoot -15.8534 -2.37162
rtoes 1.67996
lfemur -12.5991 1.53421 -7.17596
ltibia 30.5837
lfoot -18.1167 13.2197
ltoes -11.4128
527
root 0.146845 17.9068 -5.24365 9.08774 -10.4715 -9.07289
lowerback -6.92469 0.229223 -1.35889
upperback -2.57875 0.28477 5.47987
thorax 1.17879 0.161576 6.50004
lowerneck -23.3602 -2.45632 -1.29742
upperneck 22.737 -3.31168 1.13316
head 11.2986 -1.4669 0.0892784
rclavicle -1.503e-014 -4.57205e-014
rhumerus -27.5703 -1.10124 -81.9634
rradius 30.2422
rwrist -7.36485
rhand -22.3053 6.63944
rfingers 7.12502
rthumb 4.11394 -23.3006
lclavicle -1.503e-014 -4.57205e-014
lhumerus -27.6549 6.07836 86.7301
lradius 21.4971
lwrist -1.7234
lhand -9.49403 30.6096
lfingers 7.12502
lthumb 16.4708 59.9304
rfemur -15.4409 -0.422772 29.067
rtibia 29.3659
rfoot -15.8329 -2.38374
rtoes 1.49365
lfemur -12.5015 1.56467 -7.00639
ltibia 30.6385
lfoot -18.0042 13.5265
ltoes -12.9729
